<svg width="128" height="128" fill="none" xmlns="http://www.w3.org/2000/svg">
  <path d="M64.96 16h-1.92C37.0605 16 16 37.4903 16 64s21.0605 48 47.04 48h1.92C90.9395 112 112 90.5097 112 64S90.9395 16 64.96 16z" fill="#F8F9FA"/>
  <g filter="url(#filter0_dd)">
    <path d="M118 84H62l28 17.5L118 84z" fill="#FAFBFB"/>
    <path d="M62 84l25.5287-20.0583c1.4505-1.1396 3.4921-1.1396 4.9426 0L118 84H62z" fill="#EBEDEF"/>
    <path d="M76 101.749v-23.5c0-1.1045.8954-2 2-2h24c1.105 0 2 .8925 2 1.9971v23.5029H76z" fill="url(#paint0_linear)"/>
    <rect x="78" y="80" width="11" height="2" rx="1" fill="#fff"/>
    <rect opacity="0.5" x="78" y="85" width="24" height="2" rx="1" fill="#fff"/>
    <rect opacity="0.5" x="78" y="89" width="19" height="2" rx="1" fill="#fff"/>
    <path d="M118 114V84l-25.88 16.175a3.9987 3.9987 0 01-4.24 0L62 84v30c0 2.209 1.7909 4 4 4h48c2.209 0 4-1.791 4-4z" fill="#EBEDEF"/>
    <path d="M69 118l18.3968-15.769c1.498-1.284 3.7084-1.284 5.2064 0L111 118H69z" fill="#DDE1E4"/>
  </g>
  <path d="M51.8197 44.3837a8.8207 8.8207 0 01-4.6306-.2679 12.7948 12.7948 0 00-5.5725-1.1111 13.7672 13.7672 0 00-6.6732 2.2223c-4.224 2.5596-3.6886 4.4346-7.04 6.9446-5.1264 3.7898-8.6762 1.1111-12.692 4.9604-.6445.625-3.5795 3.6211-3.1729 7.401.3867 3.5318 3.2027 6.7561 6.336 7.4009 3.7382.754 4.9578-2.7381 9.5289-2.9762 5.3544-.2282 5.9989 4.2362 11.8986 4.9604 5.8998.7242 8.1407-3.6112 14.8733-2.9762A16.0955 16.0955 0 0160 72.4796" stroke="#BDC4CB" stroke-linecap="round" stroke-linejoin="round" stroke-dasharray="1.98 3.97"/>
  <path d="M60.6923 35.6154L89 10 74.8462 46 60.6923 35.6154z" fill="url(#paint1_linear)"/>
  <path d="M43 28l46-18-32.5539 24.2308L43 28z" fill="url(#paint2_linear)"/>
  <path d="M56.4461 34.2308L89 10 60.6923 35.6154l-2.1231 5.5384-2.1231-6.923z" fill="url(#paint3_linear)"/>
  <path d="M58.5692 41.1538l2.1231-5.5384 2.8308 2.0769-4.9539 3.4615z" fill="url(#paint4_linear)"/>
  <path d="M94 52c1.1046 0 2-.8954 2-2s-.8954-2-2-2-2 .8954-2 2 .8954 2 2 2zM24 20c1.1046 0 2-.8954 2-2s-.8954-2-2-2-2 .8954-2 2 .8954 2 2 2zM113.022 23.9999a.5553.5553 0 01-.37-.1316.6428.6428 0 01-.225-.3289c-.74-2.7763-1.229-3.2631-3.964-3.9473a.558.558 0 01-.331-.2106A.6073.6073 0 01108 19a.5703.5703 0 01.132-.3816.6504.6504 0 01.331-.2237c2.788-.7368 3.277-1.2237 3.964-3.9473v-.1185a1.13 1.13 0 01.145-.1973.78.78 0 01.225-.1316h.383a.7514.7514 0 01.225.1184.917.917 0 01.145.1974v.1184c.74 2.7631 1.229 3.25 3.964 3.9473h.119c.105.0523.196.129.265.2237a.5971.5971 0 01.092.329.504.504 0 010 .1973.5417.5417 0 01-.119.2106.435.435 0 01-.198.1447h-.145c-2.775.7368-3.264 1.2237-3.965 3.9473a.5754.5754 0 01-.17.3964.5818.5818 0 01-.398.1694h.027zM20.0218 118a.7756.7756 0 01-.3832-.132.6427.6427 0 01-.2114-.329c-.74-2.776-1.2289-3.263-3.9641-3.947a.7369.7369 0 01-.3435-.224.6674.6674 0 01-.1196-.381c0-.136.0417-.27.1196-.382a.636.636 0 01.3435-.21c2.7881-.737 3.277-1.224 3.9641-3.948a.182.182 0 010-.118.432.432 0 01.1453-.197.486.486 0 01.2247-.132h.3832c.0793.021.152.062.2114.118a.5838.5838 0 01.1585.198v.118c.74 2.763 1.2289 3.25 3.9641 3.948h.119c.1089.04.1985.12.251.223.068.097.1049.211.1057.329a.5.5 0 010 .198.8548.8548 0 01-.1189.21 1.0876 1.0876 0 01-.1982.145h-.1189c-2.7749.737-3.2638 1.224-3.9641 3.947a.642.642 0 01-.1853.381.6483.6483 0 01-.3829.185z" fill="#BDC4CB"/>
  <defs>
    <linearGradient id="paint0_linear" x1="90" y1="76" x2="90" y2="101" gradientUnits="userSpaceOnUse">
      <stop stop-color="#C0C1F5"/>
      <stop offset="1" stop-color="#8183EC"/>
    </linearGradient>
    <linearGradient id="paint1_linear" x1="74.8462" y1="10" x2="74.8462" y2="46" gradientUnits="userSpaceOnUse">
      <stop stop-color="#AAD4F7"/>
      <stop offset="1" stop-color="#5AACF0"/>
    </linearGradient>
    <linearGradient id="paint2_linear" x1="66.3538" y1="10" x2="66.3538" y2="33.5385" gradientUnits="userSpaceOnUse">
      <stop stop-color="#AAD4F7"/>
      <stop offset="1" stop-color="#5AACF0"/>
    </linearGradient>
    <linearGradient id="paint3_linear" x1="88.2923" y1="10" x2="59.9584" y2="41.0828" gradientUnits="userSpaceOnUse">
      <stop stop-color="#5AACF0"/>
      <stop offset="1" stop-color="#1F8FEB"/>
    </linearGradient>
    <linearGradient id="paint4_linear" x1="61.0462" y1="35.6154" x2="61.0462" y2="41.1538" gradientUnits="userSpaceOnUse">
      <stop stop-color="#5AACF0"/>
      <stop offset="1" stop-color="#1F8FEB"/>
    </linearGradient>
    <filter id="filter0_dd" x="56" y="61.087" width="68" height="66.913" filterUnits="userSpaceOnUse" color-interpolation-filters="sRGB">
      <feFlood flood-opacity="0" result="BackgroundImageFix"/>
      <feColorMatrix in="SourceAlpha" values="0 0 0 0 0 0 0 0 0 0 0 0 0 0 0 0 0 0 127 0"/>
      <feOffset dy="4"/>
      <feGaussianBlur stdDeviation="3"/>
      <feColorMatrix values="0 0 0 0 0 0 0 0 0 0 0 0 0 0 0 0 0 0 0.1 0"/>
      <feBlend in2="BackgroundImageFix" result="effect1_dropShadow"/>
      <feColorMatrix in="SourceAlpha" values="0 0 0 0 0 0 0 0 0 0 0 0 0 0 0 0 0 0 127 0"/>
      <feOffset dy="1"/>
      <feGaussianBlur stdDeviation="1.5"/>
      <feColorMatrix values="0 0 0 0 0 0 0 0 0 0 0 0 0 0 0 0 0 0 0.08 0"/>
      <feBlend in2="effect1_dropShadow" result="effect2_dropShadow"/>
      <feBlend in="SourceGraphic" in2="effect2_dropShadow" result="shape"/>
    </filter>
  </defs>
</svg>
